HIERARCHY
ROOT hip
{
  OFFSET 0.0 0.0 0.0
  CHANNELS 6 Xposition Yposition Zposition Zrotation Yrotation Xrotation
  JOINT torso
  {
    OFFSET 0.0 0.0 0.0
    CHANNELS 3 Zrotation Xrotation Yrotation
    JOINT neck
    {
      OFFSET -8.059630999999968 325.56260699999996 64.6221310000002
      CHANNELS 3 Zrotation Xrotation Yrotation
      JOINT head
      {
        OFFSET 34.685424000000125 375.1179809999999 232.79357900000002
        CHANNELS 3 Zrotation Xrotation Yrotation
        End Site
        {
          OFFSET 0.0 0.0 0.0
        }
      }
    }
    JOINT left_collar
    {
      OFFSET -8.059630999999968 325.56260699999996 64.6221310000002
      CHANNELS 3 Zrotation Xrotation Yrotation
      JOINT left_upper_arm
      {
        OFFSET -124.124665 -15.370300999999927 25.582641999999964
        CHANNELS 3 Zrotation Xrotation Yrotation
        JOINT left_forearm
        {
          OFFSET -268.19913399999996 105.06054699999993 114.74548300000004
          CHANNELS 3 Zrotation Xrotation Yrotation
          JOINT left_hand
          {
            OFFSET -235.82003099999991 -10.198180999999977 -38.67455999999993
            CHANNELS 3 Zrotation Xrotation Yrotation
            End Site
            {
              OFFSET 0.0 0.0 0.0
            }
          }
        }
      }
    }
    JOINT right_collar
    {
      OFFSET -8.059630999999968 325.56260699999996 64.6221310000002
      CHANNELS 3 Zrotation Xrotation Yrotation
      JOINT right_upper_arm
      {
        OFFSET 162.73931899999997 -2.8598030000000563 26.244994999999903
        CHANNELS 3 Zrotation Xrotation Yrotation
        JOINT right_forearm
        {
          OFFSET 284.6506340000001 103.07031299999994 145.84521499999994
          CHANNELS 3 Zrotation Xrotation Yrotation
          JOINT right_hand
          {
            OFFSET 226.332337 -12.198241999999937 -49.27258299999994
            CHANNELS 3 Zrotation Xrotation Yrotation
            End Site
            {
              OFFSET 0.0 0.0 0.0
            }
          }
        }
      }
    }
  }
}
MOTION
Frames: 6
Frame Time: 0.01
389.27297290177273 224.31922215297112 803.3520526735498 0.16360582217151737 -0.14583755863881268 -1.7424507138950054 0.2705170240508314 0.40565417204647314 -0.04272849109587645 -0.41248447464967103 0.640509163445589 0.19519459154172608 0.0 0.0 0.0 0.25104528915122365 0.035274047099269276 0.13068406237718672 3.323039967714871 3.428192229509364 5.842239194244995 1.9476160689005573 -0.3221075731393286 0.04005035336608541 0.0 0.0 0.0 0.014593535765783976 0.03319381425210205 2.0319641292851296 -0.4704545359441715 1.1033997730395533 -2.446919333604049 -2.1516549550484294 -0.4202218027040476 0.6624479242763532 0.0 0.0 0.0
389.45402151064206 224.21209487236305 804.189412139081 0.17641329368173192 -0.16288092027677128 -1.7475046403030183 0.26353358677140853 0.39454224721282016 -0.041666008832868036 -0.3834633176711836 0.4366195914735313 0.19666569123874827 0.0 0.0 0.0 0.2614384073517093 0.03590355384509402 0.1425813118781087 3.3426330533941586 3.436524190273527 5.846396312892279 1.6932632836211596 -0.2677703845186365 -0.17320309552014687 0.0 0.0 0.0 0.009940779465520215 0.033928437866831404 2.0262419837715124 -0.5795662839466351 1.1732616317615632 -2.4968284368753864 -1.7136614040424913 -0.3068133129393294 0.9580906712147378 0.0 0.0 0.0
389.63991645308715 224.10517909672285 805.034755836809 0.18895794901369076 -0.17945172137925997 -1.7529618925573174 0.256660671120708 0.38450877046255577 -0.04059474119361764 -0.3538391442053199 0.2245468974260061 0.19843045181165345 0.0 0.0 0.0 0.271667406676688 0.036489792580799624 0.15453784781605123 3.3589517887765634 3.443118563729072 5.84884605471656 1.4296085795896047 -0.2125430154122088 -0.3933835253699236 0.0 0.0 0.0 0.005433588311801641 0.034639601291872844 2.020697597384209 -0.6882302308542271 1.242407795957969 -2.5457873274213054 -1.2620755963818369 -0.19260651615358124 1.260345853086704 0.0 0.0 0.0
389.82808412831787 223.9952409715899 805.8950139440434 0.2005008071039864 -0.19619785251730257 -1.758418653231638 0.250004309985075 0.3759961919496647 -0.039523724001407606 -0.323227164785173 0.0020260548324659102 0.20045253392696108 0.0 0.0 0.0 0.28171677716434773 0.03705003653934393 0.16639212825637886 3.3720183263154238 3.4480619746159524 5.849816468461472 1.1515732004896628 -0.155360671798339 -0.6272909153445132 0.0 0.0 0.0 0.001108710155473597 0.03531602766226419 2.015063346922097 -0.7959636174850556 1.3107811155225846 -2.5942846374207402 -0.7906924594788836 -0.07625664373519649 1.5737074380580156 0.0 0.0 0.0
390.01553396909145 223.87843014356162 806.7781188680024 0.21025265857586456 -0.21391712057439996 -1.763451234813887 0.24366018545123497 0.3694367414007297 -0.03846036145907929 -0.2912441009456126 -0.23308509724034096 0.20267918951638572 0.0 0.0 0.0 0.29158049302610717 0.03759839642970777 0.17802346386149692 3.3820255143058446 3.451535807284677 5.849639085152406 0.8538168182785023 -0.09520646703521371 -0.8823433053111778 0.0 0.0 0.0 -0.0030078174304234502 0.035948384674609056 2.0090748765911655 -0.9023295519842606 1.3783933456657336 -2.642949128052322 -0.29304805577857396 0.04350116406470089 1.903177760530152 0.0 0.0 0.0
390.198865629539 223.75033167021692 807.6927951366753 0.21739010354741045 -0.2335499904120932 -1.7676223315205115 0.23771073464704892 0.36523868822492506 -0.0374101979104815 -0.2575233580686777 -0.4826958215009681 0.2050401576099412 0.0 0.0 0.0 0.30126212546235276 0.03814513373809141 0.18935743146023035 3.3893536464887957 3.4538236055942306 5.84875315274601 0.5308823544330304 -0.031171583619860714 -1.1664156642307026 0.0 0.0 0.0 -0.006902798037846077 0.03652980078032598 2.002478494263194 -1.0069457098989372 1.445326709026873 -2.6925454140990563 0.23737313735489454 0.16777276435066846 2.254155145532336 0.0 0.0 0.0
